# xmcd
#
# Track frame offsets: 
#        165
#        2934
#        5694
#        11812
#        14195
#        16828
#        18587
#        20883
#        31373
#        49928
#        61312
#        70051
#        78830
#        92312
#        108843
#        122691
#        137164
#        151423
#        154423
#        156446
#        164469
#        170270
#        174752
#        181393
#        185105
#        193907
#        201381
#        210668
#        215010
#        218412
#        223059
#        228881
#        233732
#        238132
#        240747
#        243108
#        254281
#        262527
#        268624
#        281566
#        287179
#        291299
#        295542
#        301538
#        315187
#        327289
#
# Disc length: 4431 seconds
#
# Revision: 0
# Processed by: cddbd v1.5.2PL0 Copyright (c) Steve Scherf et al.
# Submitted via: ExactAudioCopyFreeDBPlugin 1.0
#
DISCID=8c114d2e
DTITLE=John and Alan Lomax - Field Recordings 13: Texas, Louisiana, Arka
DTITLE=nsas, Mississippi, Florida, Alabama, Georgia, Tennessee, South 
DTITLE=Carolina, Delaware
DYEAR=1998
DGENRE=Blues
TTITLE0=Moose (Clear Rock) Platt - Dat's All Right Honey
TTITLE1=Jim Boyd - If I Get My Ticket, Lord
TTITLE2=James (Iron Head) Baker - Pick A Bale O'Cotton
TTITLE3=James (Iron Head) Baker - Little John Henry
TTITLE4=Henry Truvillion - Wake Up Sleepy
TTITLE5=Henry Truvillion - Track-Laying Holler
TTITLE6=Henry Truvillion - Track-Calling
TTITLE7=Roans Chapel Singers - Golden Slipper
TTITLE8=Roans Chapel Singers - My Record Will Be There
TTITLE9=Roans Chapel Singers - Mt Lord, What A Morning
TTITLE10=Magnolia Five - Oh! Noah!
TTITLE11=Magnolia Five - Travelling Shoes
TTITLE12=Magnolia Five - Adam And Eve, It's Fire Down There
TTITLE13=The Paramount Singers - Seal Up Your Book, John
TTITLE14=The Paramount Singers - There's A Camp Meeting
TTITLE15=The Paramount Singers - Daniel Saw The Stone, Pt 1
TTITLE16=The Paramount Singers - Daniel Saw The Stone, Pt 2
TTITLE17=Male Group - No More, My Lord
TTITLE18=Irvin "Gar Mouth" Lowry - Wasn't I Lucky
TTITLE19=Jubilee Quartet - Lord, Don't Turn Your Child Away
TTITLE20=Frank Evans - Red River Blues
TTITLE21=I. M. Abraham - Knock Along Brother Rabbit
TTITLE22=I. M. Abraham - Oh Br'r Rabbit, Shake It
TTITLE23=I. M. Abraham - Steal Her, Golden Boy
TTITLE24=Friendly Five Harmony Singers - Near The Cross
TTITLE25=Friendly Five Harmony Singers - Tossed And Driven
TTITLE26=Four Girls - I Heard The Voice Of Jesus Say
TTITLE27=Group - Toasts
TTITLE28=Annie May Jefferson - Sometimes I Feel Like A Motherless Chil
TTITLE28=d
TTITLE29=Clabe Amerson - Going Walk Around In Jordan Tell The News
TTITLE30=Richard Amerson - Dog Caught A Hog
TTITLE31=Richard Amerson - Sermon On Job, Job
TTITLE32=Doc Reed and Vera Hall - Soon One Mornin'
TTITLE33=Rev B. D. Hall - Jubilee
TTITLE34=Enoch Brown - De Blood Done Sign My Name
TTITLE35=John Davis - The Angels Rolled The Stone Away
TTITLE36=Brewster Davis - Join The Band
TTITLE37=Traveller Home Singers Of Ideal Georgia - Got My Ticket
TTITLE38=Traveller Home Singers Of Ideal Georgia - Where Was My Lord B
TTITLE38=orn
TTITLE39=The Four Brothers - Death Came A-Knocking
TTITLE40=D. W. White - God Don't Like It, No, No
TTITLE41=Allen Prothro - Pauline
TTITLE42=Harmony Four - Climbing Up The Mountain To Georgia
TTITLE43=Harmony Four - Zachriah
TTITLE44=Harmony Four - The Handwriting On The Wall
TTITLE45=Junior Four Quartet - I'm On My Way
EXTD=
EXTT0=
EXTT1=
EXTT2=
EXTT3=
EXTT4=
EXTT5=
EXTT6=
EXTT7=
EXTT8=
EXTT9=
EXTT10=
EXTT11=
EXTT12=
EXTT13=
EXTT14=
EXTT15=
EXTT16=
EXTT17=
EXTT18=
EXTT19=
EXTT20=
EXTT21=
EXTT22=
EXTT23=
EXTT24=
EXTT25=
EXTT26=
EXTT27=
EXTT28=
EXTT29=
EXTT30=
EXTT31=
EXTT32=
EXTT33=
EXTT34=
EXTT35=
EXTT36=
EXTT37=
EXTT38=
EXTT39=
EXTT40=
EXTT41=
EXTT42=
EXTT43=
EXTT44=
EXTT45=
PLAYORDER=
